<svg width="1600" height="1000" viewBox="0 0 1600 1000" fill="none" xmlns="http://www.w3.org/2000/svg">
  <rect width="1600" height="1000" rx="56" fill="#FFF8F1"/>
  <rect x="88" y="84" width="1424" height="832" rx="36" fill="#F3E5D7"/>
  <rect x="156" y="164" width="620" height="76" rx="18" fill="#D97D52" fill-opacity="0.24"/>
  <rect x="156" y="284" width="1010" height="28" rx="14" fill="#C4B3A4"/>
  <rect x="156" y="340" width="918" height="28" rx="14" fill="#C4B3A4"/>
  <rect x="156" y="396" width="1044" height="28" rx="14" fill="#C4B3A4"/>
  <rect x="156" y="500" width="508" height="272" rx="26" fill="#EAB596"/>
  <rect x="700" y="500" width="672" height="68" rx="18" fill="#FFFFFF"/>
  <rect x="700" y="602" width="612" height="24" rx="12" fill="#C4B3A4"/>
  <rect x="700" y="648" width="548" height="24" rx="12" fill="#C4B3A4"/>
  <rect x="700" y="694" width="632" height="24" rx="12" fill="#C4B3A4"/>
  <rect x="700" y="760" width="244" height="56" rx="28" fill="#B85C38"/>
</svg>
